<svg width="406" height="386" viewBox="0 0 406 386" fill="none" xmlns="http://www.w3.org/2000/svg">
<path d="M47 0H360C385 0 406 21 406 47V275C406 301 385 322 360 322H228L94 384C86 388 76 381 76 372V322H47C21 322 0 301 0 275V47C0 21 21 0 47 0ZM360 25H47C35 25 25 35 25 47V275C25 287 35 296 47 296H89C96 296 102 302 102 309V353L219 298C221 297 223 296 225 296H360C372 296 381 287 381 275V47C381 35 372 25 360 25Z" fill="black"/>
<path fill-rule="evenodd" clip-rule="evenodd" d="M109 137C122 137 133 148 133 161C133 174 122 185 109 185C96 185 85 174 85 161C85 148 96 137 109 137Z" fill="black"/>
<path fill-rule="evenodd" clip-rule="evenodd" d="M203 137C217 137 227 148 227 161C227 174 217 185 203 185C190 185 179 174 179 161C179 148 190 137 203 137Z" fill="black"/>
<path fill-rule="evenodd" clip-rule="evenodd" d="M297 137C311 137 321 148 321 161C321 174 311 185 297 185C284 185 273 174 273 161C273 148 284 137 297 137Z" fill="black"/>
</svg>
